PathFileType	4	(X/Y/Z)	C:/Users/beibeiliu/ov580/test_trc\sequence.40_training_dense_right.trc
DataRate	CameraRate	NumFrames	NumMarkers	Units	OrigDataRate	OrigDataStartFrame	OrigNumFrames
120	120	21	19	mm	120	27	80
Frame#	Time	ThumbCMC			ThumbMCP			ThumbIP			ThumbTip			IndexMCP			IndexPIP			IndexTip			MiddleMCP			MiddlePIP			MiddleTip			RingMCP			RingPIP			RingTip			PinkyMCP			PinkyPIP			PinkyTip			BackHand1			BackHand2			BackHand3	
		X0	Y0	Z0	X1	Y1	Z1	X2	Y2	Z2	X3	Y3	Z3	X4	Y4	Z4	X5	Y5	Z5	X6	Y6	Z6	X7	Y7	Z7	X8	Y8	Z8	X9	Y9	Z9	X10	Y10	Z10	X11	Y11	Z11	X12	Y12	Z12	X13	Y13	Z13	X14	Y14	Z14	X15	Y15	Z15	X16	Y16	Z16	X17	Y17	Z17	X18	Y18	Z18	
26	0.216667	103.189	46.4377	57.1529	98.9379	64.7488	37.0041	94.0647	76.0201	17.3893	80.1706	85.198	-0.490079	73.9955	40.9648	3.20042	61.0071	61.8351	-9.13727	62.9781	91.288	-2.5111	52.4037	41.6739	8.4394	45.8728	73.5578	7.45066	58.8259	82.0209	33.3734	39.5308	51.4174	20.0659	47.8005	76.4153	27.751	62.2869	72.1316	51.6678	27.3287	51.6755	39.4083	42.0543	71.3814	39.8185	59.3379	64.3755	55.0235	58.7794	18.9086	57.6406	68.3237	16.3006	83.0735	88.6359	16.9135	61.3085	
27	0.225	110.604	82.2049	63.8507	97.683	101.451	44.0743	84.6469	108.854	20.4567	71.0802	115.441	7.6495	84.0332	71.7017	2.21435	68.7868	88.8899	-8.77175	54.7724	114.1	0.684826	66.1918	64.9484	5.31801	47.1196	88.9604	7.56029	59.6291	98.8213	37.5585	50.4616	60.0249	20.4448	46.5373	87.6113	27.8387	59.1698	84.9248	54.0936	40.3716	55.3679	34.1815	37.4637	78.6833	43.1423	63.7823	76.6901	56.5934	78.7927	35.8282	50.8224	92.9434	34.3217	79.3551	105.691	47.8467	55.2978	
28	0.233333	97.8745	99.3638	70.8699	79.0951	110.339	47.974	68.6604	112.637	30.4471	56.6772	115.165	11.558	96.4924	92.1457	5.30495	76.7605	97.9264	-6.57293	47.4065	107.744	-1.42229	85.7089	73.995	4.22196	59.4147	84.726	2.04084	53.5995	91.3942	35.1164	71.6684	60.9807	13.7462	51.2924	74.6928	23.2924	59.5815	78.9908	49.12	66.0152	47.5159	26.2506	50.6748	65.0049	34.5172	62.0559	71.5084	56.0292	106.085	49.6964	53.2452	109.409	47.8809	81.8378	118.281	74.8478	62.5998	
29	0.241667	80.624	92.7385	80.202	62.0423	96.1737	54.8376	53.659	100.706	30.3501	50.2695	97.7785	8.9663	96.7808	98.1698	14.9045	80.9232	97.7425	-0.614639	55.5039	91.7735	-5.68139	100.107	79.8271	8.57734	72.1844	75.3931	1.45021	56.7314	76.6352	30.5677	94.768	60.1601	15.7749	66.4616	62.487	18.4181	66.0284	65.7755	46.3099	93.9099	44.9775	24.1616	68.3619	49.6886	27.878	68.2323	56.0083	51.3183	117.844	59.5516	59.5907	115.81	53.1592	88.579	110.466	84.9609	79.2233	
30	0.25	67.0162	80.0334	81.2778	53.732	80.2096	53.4249	49.5652	81.9516	32.2806	48.2341	82.6295	12.365	89.0815	106.289	29.4181	79.8707	96.661	6.31361	62.4706	84.5434	-4.981	104.165	89.5092	20.2647	82.9982	76.7759	2.87036	66.2063	61.7838	24.9842	106.859	68.6671	19.7282	81.2354	60.4515	15.6054	75.2745	51.7992	44.3181	109.841	53.883	27.5892	86.54	49.8235	24.6213	78.1525	48.9666	46.5152	118.679	65.0741	70.3999	112.219	55.9429	93.8839	99.3606	82.0574	89.4617	
31	0.258333	62.3857	66.2785	84.1928	52.9158	68.9485	51.6594	50.1998	72.9036	32.1432	49.3246	76.3065	9.43247	86.0711	104.843	40.816	76.9644	99.4222	13.4537	67.6471	80.848	-2.00701	103.763	97.3637	29.8986	90.9899	82.36	8.24064	71.6107	59.088	25.1166	110.252	78.7869	28.15	92.0401	62.2725	18.2486	80.3342	52.3905	39.1791	119.666	61.3242	34.4396	99.0838	53.2183	25.8679	85.8877	48.3565	47.4112	115.225	70.0406	79.2068	108.947	55.1688	103.765	93.9462	75.3231	95.3372	
32	0.266667	59.0412	59.8825	87.3949	52.3616	65.7449	52.8411	49.8464	73.027	31.4449	53.7458	76.9282	10.6434	81.9169	107.374	48.4152	72.981	103.34	18.3495	67.8807	87.1842	3.62384	100.693	101.674	41.0813	88.8895	90.2192	13.6558	79.625	60.6195	23.9423	112.401	85.5541	36.4906	96.3358	70.6164	20.738	87.4193	51.4763	41.329	122.203	70.42	41.554	106.62	55.8421	27.1717	91.6049	48.654	50.1303	117.16	71.0474	86.2688	112.476	52.9776	103.57	92.1109	75.492	97.89	
33	0.275	63.6273	62.2462	87.5302	53.4004	65.9305	58.2322	52.4184	73.7838	35.4951	54.9002	82.2024	12.4965	80.6671	112.358	47.3144	76.9571	108.929	22.9057	72.7274	91.2527	4.34681	105.147	103.075	42.8443	92.5218	94.5792	15.0853	79.8437	66.8191	22.636	114.547	88.0309	34.4625	99.224	71.9855	21.4164	91.1804	53.9076	39.2337	123.661	73.1793	39.6046	107.241	59.6527	27.9116	92.6539	46.7019	50.3302	118.793	74.7368	88.372	112.82	57.6812	104.433	89.7595	75.4105	101.674	
34	0.283333	71.6412	71.653	88.1257	58.1828	76.5549	58.6617	59.4216	80.2854	39.9691	57.6298	87.3783	14.6209	92.4531	111.85	44.8037	79.0752	109.642	18.0663	71.802	94.247	3.58816	105.399	106.638	35.4574	93.9799	93.879	13.4427	79.8852	65.9448	27.7734	115.595	87.1116	32.8638	99.7021	71.7327	21.0976	87.5018	57.2929	45.9778	124.286	70.3873	36.4059	105.569	57.5798	28.5591	92.6132	52.1355	50.2928	125.316	72.7625	83.2491	118.225	58.0605	103.921	100.255	82.8006	97.9553	
35	0.291667	82.9762	81.8336	90.9538	65.9127	86.0038	59.265	60.0367	87.2409	39.1338	62.3075	85.2954	17.5062	96.7905	113.184	31.6295	86.9234	103.567	12.568	67.4965	90.0986	1.76533	110.184	98.1059	21.3166	89.8934	82.4756	7.71944	78.1685	61.5127	29.3297	117.514	75.6753	23.8533	90.5557	64.8953	21.7841	87.6304	55.0356	49.584	120.189	61.8621	27.3316	101.154	53.9436	27.3073	93.4126	52.8375	53.4004	133.317	77.1078	74.1025	129.873	63.1869	99.5654	117.238	88.5249	90.3049	
36	0.3	97.4199	93.481	84.5764	74.1095	88.2249	65.5251	62.6185	85.3274	39.8698	56.3463	77.254	23.3764	100.105	102.139	20.9903	79.0046	95.0335	7.89853	61.4725	77.1854	6.96484	103.708	87.8649	14.2561	81.8692	71.0335	10.2028	70.8983	61.3815	41.4393	110.373	65.7017	20.1438	84.5412	55.6972	28.9644	87.324	57.5344	56.1037	118.004	49.312	28.122	91.8516	44.7671	37.9991	91.0028	53.8849	57.5487	139.239	74.4999	61.131	143.251	72.8174	84.9659	130.2	93.5517	80.1031	
37	0.308333	109.155	99.3773	86.3594	77.8321	93.1534	73.8879	60.0952	83.0731	53.7598	50.8872	69.9271	41.1644	93.2435	96.0447	22.5113	71.2962	84.1935	14.9005	47.6362	73.0572	25.488	95.4762	77.5	16.2247	72.1573	61.2591	23.4592	71.9862	58.5579	56.5586	102.749	58.931	23.8825	79.1992	52.7654	42.118	86.0877	60.2741	65.259	109.82	43.2049	33.7344	89.4344	43.621	49.858	94.933	58.6723	69.4252	144.023	74.3972	53.413	154.439	75.0684	73.9636	136.095	98.3263	64.2739	
38	0.316667	118.044	106.571	87.9121	84.8516	99.5932	84.8994	62.6541	88.6658	73.0189	49.7622	75.2115	67.5989	81.4057	95.0089	30.5692	57.8835	86.2321	34.1042	42.823	74.0255	52.8099	86.7815	74.9477	27.1996	62.24	66.6349	41.2891	68.5386	66.203	74.9009	89.3682	60.1071	34.8456	74.3142	53.6952	53.8611	85.8611	64.5387	78.2297	104.122	45.8454	41.8052	86.6317	43.316	58.1009	92.1122	58.9001	77.6421	139.819	74.2457	50.9002	155.477	79.3013	67.5182	139.738	99.886	59.3614	
39	0.325	122.326	111.639	91.6009	87.7772	105.023	92.305	67.5997	94.944	87.5313	51.6625	83.3314	87.1599	79.2602	102.931	44.4646	52.9044	95.8493	51.4385	39.7125	85.6169	74.5905	74.0295	82.5692	39.3317	54.3813	71.6989	60.4227	67.884	70.3251	89.4408	79.3775	60.7952	45.6784	66.9497	61.2632	68.7996	84.0153	68.6773	90.4226	92.3683	51.2585	49.5191	77.4288	49.193	70.0955	89.3947	61.7368	89.6159	133.496	70.1818	49.558	155.22	72.8741	66.0948	137.464	100.009	58.6234	
40	0.333333	124.507	108.746	91.1165	94.5533	107.67	100.865	70.7971	102.309	100.918	52.4796	89.949	97.9688	74.9805	105.201	52.0671	51.181	97.271	63.6592	40.5784	88.3204	90.5602	70.664	80.8623	47.287	50.4648	78.4171	67.4013	63.2384	74.5776	98.8399	76.5218	61.6693	52.786	61.1301	64.1445	76.5609	76.3925	66.4849	98.719	84.1476	46.5992	56.3973	70.3515	49.4779	77.8383	81.7092	59.5612	97.2531	126.179	68.4887	52.0251	150.742	67.4322	63.3482	135.244	91.3559	61.1331	
41	0.341667	126.711	102.318	91.2606	98.0529	107.022	104.869	72.5319	100.229	102.561	50.6804	90.7677	103.981	73.4988	103.453	55.1803	50.1037	96.9136	68.9463	41.0151	92.0406	92.2543	65.6871	80.7762	51.1874	48.385	74.221	72.7606	62.0213	71.5222	102.947	70.094	59.7887	56.2856	57.4732	63.4897	77.1924	75.3938	65.2923	102.915	82.8953	43.1464	58.8745	66.8176	51.5106	80.418	75.9883	57.1898	99.0064	126.092	61.7529	52.8279	144.897	61.0442	64.4985	135.133	89.3443	62.2316	
42	0.35	124.82	100.935	89.2675	97.0749	104.258	102.388	69.8911	100.24	101.974	48.0627	91.0411	102.275	70.2316	97.302	53.6669	50.988	93.1575	65.4092	40.4809	87.1865	88.9556	65.9385	75.8509	49.1294	48.0917	71.5882	67.7576	58.0068	70.3074	100.239	72.7603	61.6237	54.3418	57.3543	60.8332	77.0811	69.1502	66.3615	98.9338	82.9566	41.0789	57.2638	66.0368	44.7589	75.2414	74.3133	56.8781	98.1312	126.463	61.7696	52.2717	145.646	60.1273	63.1809	131.887	88.751	59.8655	
43	0.358333	123.595	104.028	88.6199	94.7188	102.225	96.695	70.9269	98.1608	96.1881	51.5452	90.0348	95.2077	76.6973	95.6187	46.9184	48.4457	92.7241	61.249	39.2189	85.6667	80.9468	74.0524	76.1287	43.6893	49.3549	73.3482	62.6346	56.7055	70.191	92.0065	77.4555	58.8411	47.094	59.5965	59.456	71.932	71.1717	60.1103	93.9668	85.0601	39.9675	51.801	69.0612	46.1932	69.049	75.7092	55.3167	91.1456	129.747	63.2255	50.8713	149.259	63.1306	61.9641	136.872	86.1625	59.9671	
44	0.366667	119.397	99.8076	81.8126	91.7224	100.296	87.7552	68.4187	95.181	83.6458	47.7286	87.3769	79.6959	76.4	94.5384	35.2185	54.2913	89.7861	43.5395	40.0409	76.7491	64.0857	77.1583	74.3769	32.4128	54.2094	65.7524	48.8694	59.8779	66.7304	79.7605	80.2903	55.295	38.0244	62.8335	56.3783	59.6048	73.6935	59.0692	82.2096	92.6316	42.7639	44.1531	73.9217	43.1405	60.7951	79.0315	57.432	78.5402	132.939	63.18	44.3529	153.702	64.0096	66.2974	139.16	89.7896	58.9143	
45	0.375	115.011	100.08	74.7797	83.8083	97.1537	70.2763	62.422	92.8547	60.785	43.5653	84.0846	51.9117	91.9538	90.852	18.5734	63.7035	85.646	19.8504	43.8733	73.5654	37.2423	90.8529	73.6167	14.5346	64.4378	65.4758	22.6433	65.2537	62.9466	56.7599	96.8275	56.2618	22.7777	71.9871	53.1479	38.8568	78.0092	58.9699	64.0148	102.319	38.0684	30.2527	83.6183	42.1733	40.2512	84.0178	52.2155	66.0225	140.266	67.5397	44.7462	157.756	65.913	67.4871	139.217	94.7423	54.5616	
46	0.383333	106.955	102.94	70.5973	82.5448	95.5547	56.5578	63.0135	90.439	38.2479	52.8979	83.1929	28.2548	102.068	97.9813	9.29778	79.8747	84.7068	0.632374	56.2174	69.6807	10.8712	108.283	77.2303	3.90226	79.6917	66.7431	4.09967	73.9156	62.7501	35.0653	112.297	61.1147	11.1152	84.6289	54.998	19.1761	84.9859	59.7306	46.047	116.817	40.8148	18.5617	92.6925	42.3038	28.8055	91.3496	56.353	46.7657	145.838	68.0041	43.4237	154.325	70.7694	69.2603	140.576	95.1143	58.1347	
